<svg xmlns="http://www.w3.org/2000/svg" xmlns:xlink="http://www.w3.org/1999/xlink" id="Layer_1" x="0px" y="0px" viewBox="0 0 256 256" style="enable-background:new 0 0 256 256;" xml:space="preserve"><style type="text/css">	.st0{fill:#FFFFFF;}	.st1{font-family:'ArialMT';}	.st2{font-size:59px;}</style><path class="st0" d="M115.3,24c-26.2,0-52.4,0-78.5,0c-4.9,0-8.7,1.6-11.1,6c-1,1.9-1.2,3.9-1.2,6c0,52.6,0,105.2,0,157.7 c0,7.7,4.4,12,12.3,12c30.2,0,60.4,0,90.6,0c2,0,2.6,0.4,2.5,2.5c-0.2,4.8-0.1,4.8-4.9,4.8c-29.5,0-59,0-88.4,0 c-7.9,0-13.8-3.2-17.5-10.3c-1.4-2.6-1.9-5.5-1.9-8.5c0-52.9,0-105.7,0-158.6c0-11,7.9-18.7,18.9-18.8c14.7-0.1,29.3,0,44,0 c37.9,0,75.8,0,113.7,0c7.9,0,14,3.2,17.7,10.4c1.4,2.7,1.8,5.7,1.8,8.7c0,26.9,0,53.8,0,80.7c0,1.6-0.4,1.9-1.9,1.9 c-5.4-0.1-5.4,0-5.4-5.5c0-25.6,0-51.2,0-76.8c0-6.3-2.8-10.4-8.1-11.8c-1.5-0.4-3-0.4-4.6-0.4C167.3,24,141.3,24,115.3,24z"></path><path class="st0" d="M115.3,57.1c-27.1,0-54.2,0-81.4,0c-1.8,0-2.3-0.4-2.3-2.3c0.1-5.1,0-5.1,5.1-5.1c53.2,0,106.4,0,159.6,0 c1.9,0,2.6,0.4,2.5,2.5c-0.2,4.9-0.1,4.9-4.9,4.9C167.8,57.1,141.5,57.1,115.3,57.1z"></path><path class="st0" d="M50.7,115.2c2,0,5,0.6,7.7,2.2c1.1,0.6,1.7,0.6,2.6-0.4c2.3-2.5,4.8-4.8,7.1-7.2c0.7-0.7,1.2-0.9,1.9,0 c1.3,1.5,3.7,2.6,3.8,4.3c0,1.3-2.3,2.6-3.5,3.9c-0.2,0.2-0.3,0.3-0.5,0.5c-3.4,2.6-4.7,5-2.8,9.8c2.9,7.1,0.3,13.9-5.6,18.9 c-5.7,4.8-12.4,5.7-19.1,2.6c-6.9-3.2-10.6-8.9-10.6-16.5C31.7,123.3,39.5,115.4,50.7,115.2z"></path><path class="st0" d="M31.6,178.3c0.2-15,14.5-23.6,26.5-17.3c1.4,0.7,2.1,0.6,3.1-0.5c2.1-2.3,4.5-4.4,6.6-6.7c1-1,1.5-1,2.4,0 c1.2,1.4,3.5,2.7,3.5,4s-2.2,2.6-3.5,4c-0.2,0.2-0.4,0.4-0.6,0.6c-3.4,2.5-4.6,4.9-2.7,9.7c2.9,7.1,0.4,13.9-5.5,18.9 c-5.7,4.8-12.3,5.7-19.1,2.7C35.3,190.3,31.9,184.5,31.6,178.3z"></path><path class="st0" d="M49.7,71.7c3,0,5.9,0.5,8.4,2.1c1.3,0.8,2.1,0.6,3.1-0.5c2.1-2.3,4.5-4.5,6.6-6.7c0.8-0.8,1.3-1.2,2.2-0.1 c1.2,1.5,3.6,2.6,3.6,4.2c0,1.3-2.3,2.6-3.5,4c-0.2,0.2-0.3,0.3-0.5,0.5c-3.3,2.6-4.8,4.9-2.8,9.8c2.9,7.1,0.4,13.9-5.5,18.9 c-5.7,4.8-12.4,5.7-19.1,2.6c-6.9-3.1-10.6-8.8-10.7-16.5C31.7,79.6,39.5,71.8,49.7,71.7z"></path><path class="st0" d="M109.8,129.7c-9.7,0-19.3,0-29,0c-1.5,0-2-0.3-2-1.9c0-5.5,0-5.5,5.5-5.5c18.1,0,36.2,0,54.3,0 c1.7,0,2.2,0.4,2.2,2.2c-0.1,5.2,0,5.2-5.2,5.2C127,129.7,118.4,129.7,109.8,129.7z"></path><path class="st0" d="M109.8,86.2c-9.6,0-19.2,0-28.8,0c-1.6,0-2.1-0.3-2.1-2c0.1-5.4,0-5.4,5.3-5.4c18.1,0,36.2,0,54.3,0 c1.8,0,2.4,0.3,2.3,2.2c-0.1,5.1,0,5.1-5.1,5.1C127,86.2,118.4,86.2,109.8,86.2z"></path><path class="st0" d="M137.1,93.3c7.8,0,15.7,0,23.5,0c1.4,0,1.8,0.3,1.8,1.8c0,5.6,0.1,5.6-5.5,5.6c-14.4,0-28.8,0-43.3,0 c-1.6,0-2.1-0.4-2.1-2c0.1-5.3,0-5.3,5.3-5.3C123.7,93.3,130.4,93.3,137.1,93.3z"></path><path class="st0" d="M102.6,173.3c-7.2,0-14.5,0-21.7,0c-1.4,0-2-0.2-2-1.9c0-5.5,0-5.5,5.4-5.5c13.3,0,26.5,0,39.8,0 c1.6,0,2.3,0.3,2.2,2.1c-0.1,5.2,0,5.2-5.2,5.2C114.9,173.3,108.8,173.3,102.6,173.3z"></path><path class="st0" d="M166.1,86.2c-5.4,0-10.8,0-16.2,0c-1.3,0-1.9-0.2-1.9-1.7c0-5.6-0.1-5.6,5.5-5.6c9.6,0,19.2,0,28.8,0 c1.6,0,2.3,0.2,2.2,2.1c-0.1,5.3,0,5.3-5.4,5.3C174.7,86.2,170.4,86.2,166.1,86.2z"></path><path class="st0" d="M126.1,144.3c-4.2,0-8.5-0.1-12.7,0c-1.3,0-1.7-0.3-1.7-1.7c0-5.7-0.1-5.7,5.6-5.7c7.2,0,14.4,0,21.5,0 c1.5,0,2,0.3,2,1.9c0,5.4,0,5.4-5.4,5.4C132.3,144.3,129.2,144.3,126.1,144.3z"></path><path class="st0" d="M91.7,144.3c-3.7,0-7.3-0.1-11,0c-1.3,0-1.9-0.2-1.9-1.8c0-5.6-0.1-5.6,5.5-5.6c6.1,0,12.2,0,18.2,0 c1.3,0,1.7,0.3,1.8,1.7c0.1,5.7,0.1,5.7-5.6,5.7C96.4,144.3,94.1,144.3,91.7,144.3z"></path><path class="st0" d="M91.5,187.9c-3.6,0-7.2,0-10.8,0c-1.3,0-1.9-0.2-1.9-1.7c0-5.6-0.1-5.6,5.6-5.6c6.1,0,12.1,0,18.2,0 c1.3,0,1.7,0.3,1.8,1.7c0.1,5.6,0.1,5.6-5.6,5.6C96.3,187.9,93.9,187.9,91.5,187.9z"></path><path class="st0" d="M91.6,100.7c-3.6,0-7.2-0.1-10.8,0c-1.5,0-2-0.3-2-1.9c0-5.5,0-5.5,5.4-5.5c6.1,0,12.2,0,18.2,0 c1.4,0,1.9,0.3,1.9,1.8c0,5.6,0.1,5.6-5.5,5.6C96.5,100.7,94,100.7,91.6,100.7z"></path><path class="st0" d="M155.1,129.7c-1.9,0-3.8,0-5.7,0c-1.1,0-1.5-0.2-1.6-1.4c-0.2-5.9-0.3-5.9,5.6-5.9c2.5,0,5,0,7.5,0 c1.1,0,1.5,0.3,1.5,1.5c0.2,5.9,0.3,5.9-5.6,5.9C156.3,129.7,155.7,129.7,155.1,129.7z"></path><path class="st0" d="M119,187.9c-0.8,0-1.6,0-2.4,0c-1.6-0.1-4.1,0.7-4.5-0.3c-0.8-1.8-0.3-4.1-0.3-6.2c0-0.9,0.7-0.8,1.3-0.8 c3.9,0,7.9,0,11.8,0c1,0,1.4,0.3,1.4,1.3c0.4,6,0.4,6-5.5,6C120.1,187.9,119.5,187.9,119,187.9z"></path><path class="st0" d="M35.5,35.2c3.5,0,3.5,0,3.5,3.6c0,3.8,0,3.8-3.8,3.8c-3.5,0-3.5,0-3.5-3.4c0-0.1,0-0.1,0-0.2 C31.7,35.2,31.7,35.2,35.5,35.2z"></path><path class="st0" d="M46.2,38.8c0-3.6,0-3.6,3.7-3.6c3.6,0,3.6,0,3.6,3.7c0,3.6,0,3.6-3.7,3.6C46.2,42.6,46.2,42.6,46.2,38.8z"></path><path class="st0" d="M64.2,42.6c-3.5,0-3.5,0-3.5-3.6c0-3.7,0-3.7,3.8-3.7c3.5,0,3.5,0,3.5,3.6C68.1,42.6,68.1,42.6,64.2,42.6z"></path><path class="st0" d="M242.3,178.5c-0.8-1.5-0.7-3.3-1-5c-5.9-29.5-34.9-48.8-64.3-42.8c-30.4,6.2-49.6,36.7-42,66.7 c7.4,29.2,37.1,47.2,65.9,39.6c20.8-5.5,34-18.9,39.8-39.6c0.7-2.3,0.4-4.8,1.7-6.9C242.4,186.6,242.4,182.6,242.3,178.5z  M188.2,231.4c-26,0.2-47.3-20.9-47.4-47c-0.2-26,20.8-47.2,47.1-47.4c25.7-0.3,47.1,21,47.3,47.1 C235.4,209.9,214.2,231.2,188.2,231.4z"></path><path class="st0" d="M59.5,128.6c2.3,5.1,1,10.4-3.1,13.5c-4,3-9.6,2.8-13.4-0.4c-4-3.4-5.1-8.9-2.6-13.5c2.4-4.4,7.6-6.7,12.3-5.3 c1.2,0.3,2.1,0.6,0.6,2c-1.7,1.5-3.2,3.2-4.8,4.8c-0.8,0.8-1.2,1.4-0.1,2.2c1.5,1.2,2.5,3.7,4.2,3.6c1.3,0,2.7-2.2,3.9-3.5 C57.4,130.9,58.3,129.9,59.5,128.6z"></path><path class="st0" d="M54.5,167.5c-2.1,1.9-4.1,3.9-6.1,5.7c-0.9,0.8-1.1,1.4-0.1,2.2c1.5,1.2,2.6,3.6,4.2,3.6c1.3,0,2.6-2.3,3.9-3.5 c1-1,2-2.1,3.1-3.3c2.4,5.2,0.9,10.7-3.5,13.7s-10.4,2.4-14-1.5c-3.6-3.9-3.9-9.9-0.7-14.1C44.3,166.2,50.8,164.9,54.5,167.5z"></path><path class="st0" d="M54.6,80.1c-2.2,2.2-4.2,4.1-6.3,6c-1,0.9-0.9,1.4,0,2.2c1.4,1.2,2.6,3.4,4,3.5c1.5,0.2,2.6-2.2,3.9-3.4 c1-1,1.9-2.2,3-3.4c2.6,4.7,1.3,10.1-2.7,13.3c-4.1,3.3-10,3.1-13.9-0.4c-4-3.5-4.8-9.5-2-14C43.5,79.4,49,77.7,54.6,80.1z"></path><text transform="matrix(1 0 0 1 154.5 205.0527)" class="st0 st1 st2">A1</text></svg>