<svg xmlns="http://www.w3.org/2000/svg" xmlns:xlink="http://www.w3.org/1999/xlink" id="Layer_1" x="0px" y="0px" viewBox="0 0 256 256" style="enable-background:new 0 0 256 256;" xml:space="preserve"><style type="text/css">	.st0{fill:#FFFFFF;}	.st1{font-family:'ArialMT';}	.st2{font-size:63.3725px;}</style><path class="st0" d="M167.6,230.7c4.2,0,8.2,0,12.4,0c1.2,2.6,1.2,5.3,0,7.9c-4.2,0-8.2,0-12.4,0 C166.5,236.1,166.5,233.4,167.6,230.7z"></path><path class="st0" d="M92.5,238.7c-4,0-7.9,0-11.9,0c-1.2-2.6-1.2-5.3,0-7.9c4,0,7.9,0,11.9,0C93.7,233.4,93.7,236.1,92.5,238.7z"></path><path class="st0" d="M80.6,230.7c0,2.6,0,5.3,0,7.9c-4,0-7.9,0-11.9,0c-0.8-2.7-0.4-5.3,0-8C72.7,230.7,76.7,230.7,80.6,230.7z"></path><path class="st0" d="M180,238.7c0-2.6,0-5.3,0-7.9c3.6,0,7.3,0,10.8,0c1.2,2.6,1.2,5.3,0,7.9C187.3,238.7,183.6,238.7,180,238.7z"></path><path class="st0" d="M167.6,230.7c0,2.6,0,5.3,0,7.9c-3.6,0-7.3,0-10.8,0c-1.2-2.6-1.2-5.3,0-7.9 C160.4,230.7,164.1,230.7,167.6,230.7z"></path><path class="st0" d="M92.5,238.7c0-2.6,0-5.3,0-7.9c3.6,0,7.3,0,10.8,0c1.2,2.6,1.2,5.3,0,7.9C99.8,238.7,96.2,238.7,92.5,238.7z"></path><path class="st0" d="M68.8,230.7c1,2.7,0.1,5.3,0,8c-3.4,0-6.9,0-10.3,0c-1.2-2.7-1.2-5.3,0-8C61.9,230.7,65.3,230.7,68.8,230.7z"></path><path class="st0" d="M218.5,238.7c-3.4,0-6.9,0-10.3,0c-1.2-2.6-1.2-5.3,0-7.9c3.4,0,6.9,0,10.3,0 C219.7,233.4,219.7,236.1,218.5,238.7z"></path><path class="st0" d="M121.7,230.7c3.4,0,6.9,0,10.3,0c1.2,2.6,1.2,5.3,0,7.9c-3.4,0-6.9,0-10.3,0 C120.5,236.1,120.5,233.4,121.7,230.7z"></path><path class="st0" d="M31.3,238.3c0.6-1.8,0.4-3.7,0.5-5.4c0-0.8-0.3-1.9,0.5-2.6c2.9,1,6,0.2,8.9,0.6c1.2,2.7,1.2,5.3,0,8 C37.9,238.7,34.5,239.3,31.3,238.3z"></path><path class="st0" d="M58.4,230.7c0,2.7,0,5.3,0,8c-3.1,0-6.3,0-9.4,0c-1.2-2.7-1.2-5.3,0-8C52.2,230.7,55.3,230.7,58.4,230.7z"></path><path class="st0" d="M103.4,238.7c0-2.6,0-5.3,0-7.9c3.1,0,6.3,0,9.4,0c1.2,2.6,1.2,5.3,0,7.9C109.6,238.7,106.5,238.7,103.4,238.7z "></path><path class="st0" d="M112.8,238.7c0-2.6,0-5.3,0-7.9c2.9,0,6,0,8.9,0c0,2.6,0,5.3,0,7.9C118.8,238.7,115.7,238.7,112.8,238.7z"></path><path class="st0" d="M190.8,238.7c0-2.6,0-5.3,0-7.9c2.9,0,5.9,0,8.9,0c1.2,2.6,1.2,5.3,0,7.9C196.8,238.7,193.9,238.7,190.8,238.7z "></path><path class="st0" d="M156.8,230.7c0,2.6,0,5.3,0,7.9c-2.9,0-6,0-8.9,0c-1.2-2.6-1.2-5.3,0-7.9C150.9,230.7,153.8,230.7,156.8,230.7z "></path><path class="st0" d="M132,238.7c0-2.6,0-5.3,0-7.9c2.8,0,5.6,0,8.4,0c1.2,2.6,1.2,5.3,0,7.9C137.6,238.7,134.9,238.7,132,238.7z"></path><path class="st0" d="M199.8,238.7c0-2.6,0-5.3,0-7.9c2.8,0,5.6,0,8.4,0c0,2.6,0,5.3,0,7.9C205.3,238.7,202.6,238.7,199.8,238.7z"></path><path class="st0" d="M49,230.7c0,2.7,0,5.3,0,8c-2.6,0-5.3,0-7.9,0c0-2.7,0-5.3,0-8C43.8,230.7,46.4,230.7,49,230.7z"></path><path class="st0" d="M140.5,238.7c0-2.6,0-5.3,0-7.9c2.4,0,5,0,7.4,0c0,2.6,0,5.3,0,7.9C145.4,238.7,143,238.7,140.5,238.7z"></path><text transform="matrix(1.1413 0 0 1 117.2398 79.8529)" class="st0 st1 st2">A2</text><g>	<path class="st0" d="M231.4,16.7c-68.3,0-136.7,0-205,0c-7.5,0-8,0.4-8,6.2c0,34.8,0,69.6,0,104.4c0,35.2,0,70.3,0,105.5  c0,5.2,0.7,5.9,7.5,5.9c68.6,0,137.4,0,206,0c6.4,0,7.2-0.7,7.2-5.5c0-70.2,0-140.4,0-210.7C239.1,17.2,238.4,16.7,231.4,16.7z   M226.4,232.6c-65-0.1-130-0.1-195,0c-4.3,0-5.2-0.8-5.2-4c0.1-67.3,0.1-134.6,0-201.9c0-3.3,1.1-3.9,5.3-3.9c65,0.1,130,0.1,195,0  c4,0,5,0.8,4.9,3.8c-0.1,33.8-0.1,67.5-0.1,101.3c0,33.6,0,67.3,0.1,100.9C231.4,231.8,230.2,232.6,226.4,232.6z"></path>	<path class="st0" d="M160.4,151.8c15.2,0,30.4,0,45.6,0c2.5,0,5.4,0,5.4,2.8c0.1,2.9-2.4,3.5-5.4,3.5c-30.7,0-61.4,0-92.1,0  c-2.8,0-5.5-0.6-5.4-3.5c0-2.9,2.8-2.8,5.4-2.8C129.3,151.8,144.9,151.8,160.4,151.8z"></path>	<path class="st0" d="M159.9,137.5c15.3,0,30.7,0,46,0c2.5,0,5.4-0.1,5.5,2.8s-2.5,3.5-5.4,3.5c-30.7,0-61.4,0-92,0  c-2.8,0-5.5-0.4-5.5-3.5c0-2.9,2.8-2.8,5.4-2.8C129.2,137.5,144.6,137.5,159.9,137.5z"></path>	<path class="st0" d="M160.4,188.2c15,0,30.1,0,45.1,0c2.7,0,5.7-0.2,5.9,2.9c0.1,3.1-2.8,3.5-5.7,3.5c-30.3,0-60.8,0-91.1,0  c-0.3,0-0.6,0-0.9,0c-2.7,0.1-5-0.8-5-3.5c0-2.6,2.3-2.9,4.8-2.9c9.3,0,18.6,0,28,0C147.8,188.2,154.1,188.2,160.4,188.2z"></path>	<path class="st0" d="M160.4,202.4c15,0,30.1,0,45.1,0c2.7,0,5.7-0.1,5.9,2.9c0.1,3.1-2.8,3.5-5.7,3.5c-30.3,0-60.8,0-91.1,0  c-2.3,0-4.6,0.1-5.6-2.2c-1-2.3,0.8-4,4.7-4C129.1,202.3,144.8,202.4,160.4,202.4z"></path>	<path class="st0" d="M159.9,101c15.3,0,30.7,0,46,0c2.7,0,5.6-0.1,5.5,3.1c-0.1,2.8-2.7,3.1-5.4,3.1c-30.7,0-61.4,0-92,0  c-2.8,0-5.5-0.3-5.5-3.3c0-2.6,2.4-2.8,4.8-2.8C129,101,144.4,101,159.9,101z"></path>	<path class="st0" d="M160.4,86.6c14.5,0,29.2,0,43.7,0c1.4,0,2.7,0,4.1,0.1c2,0,3.1,1.1,3.2,2.7c0.1,1.8-1,3-3.2,3.2  c-1,0.1-2,0.1-3.2,0.1c-30.1,0-60.1,0-90.2,0c-1.4,0-2.7,0-4.1-0.2c-1.7-0.3-2.4-1.6-2.3-3c0.1-1.3,0.8-2.6,2.7-2.7  c1.4-0.1,2.7-0.1,4.1-0.1C130.4,86.6,145.4,86.6,160.4,86.6z"></path>	<path class="st0" d="M148.7,165.9c11.6,0,23.2,0,34.8,0c2.5,0,5.1,0,5,3.1c-0.1,2.9-2.5,3.1-5.1,3.1c-23.2,0-46.4,0-69.4,0  c-2.9,0-5.4-0.6-5.4-3.5c0.1-2.9,2.8-2.8,5.4-2.8C125.5,166.1,137.1,165.9,148.7,165.9z"></path>	<path class="st0" d="M148.7,115.3c11.6,0,23.2,0,34.8,0c2.5,0,5.1-0.1,5.1,3c0,3-2.5,3.2-5.1,3.2c-23.2,0-46.4,0-69.4,0  c-2.8,0-5.5-0.4-5.4-3.5c0.1-2.9,2.8-2.8,5.4-2.8C125.5,115.3,137.1,115.3,148.7,115.3z"></path>	<path class="st0" d="M148.6,216.6c11.5,0,22.8,0,34.3,0c2.5,0,5.5-0.2,5.5,3.1c0,3.2-2.7,3.2-5.4,3.2c-23.1,0-46,0-69.1,0  c-2.8,0-5.5-0.3-5.4-3.3c0-2.8,2.7-3,5.2-3C125.5,216.7,137,216.6,148.6,216.6z"></path>	<path class="st0" d="M98.1,104c0-5.9-0.1-11.8,0-17.7c0.1-3.2-1.4-4.6-5-4.6c-13.4,0-26.8,0.1-40.1,0c-3.6,0-5.2,1.2-5.2,4.5  c0,11.8,0,23.7,0,35.5c0,3.1,1.7,4.7,5.1,4.7c13.4,0,26.8,0,40.1,0c3.4,0,5.2-1.2,5.1-4.6C98,115.8,98.1,109.9,98.1,104z   M88.1,120.1c-10.1-0.1-20.1-0.1-30.2,0c-2.2,0-3.2-0.3-3.2-2.6c0.1-9,0.1-18.2,0-27.2c0-1.9,0.8-2.5,2.8-2.5  c10.2,0.1,20.4,0.1,30.7,0c2.4,0,2.7,0.9,2.7,2.6c-0.1,4.5,0,8.9,0,13.4c0,4.6-0.1,9.3,0,13.8C91,119.5,90.2,120.1,88.1,120.1z"></path>	<path class="st0" d="M98.1,154.8c0-5.9-0.1-11.8,0-17.7c0.1-3.2-1.4-4.5-5.1-4.4c-13.4,0.1-26.8,0.1-40.1,0c-3.7,0-5.2,1.2-5.2,4.4  c0,11.8,0,23.7,0,35.5c0,3.1,1.5,4.6,5.2,4.6c13.4,0,26.8,0,40.1,0c3.6,0,5.1-1.3,5.1-4.6C98,166.6,98.1,160.7,98.1,154.8z   M90.9,168.4c0,2-0.8,2.3-2.8,2.3c-10.1-0.1-20.1-0.1-30.2,0c-2.3,0-3.2-0.3-3.2-2.6c0.1-8.9,0.1-17.9,0-26.8c0-2.2,1-2.6,3.2-2.6  c5.1,0.1,10.2,0,15.3,0c5,0,9.9,0.1,14.9,0c2.2,0,2.8,0.4,2.8,2.5C90.9,150.2,90.9,159.2,90.9,168.4z"></path>	<path class="st0" d="M98.1,187.6c0-3-1.3-4.4-4.7-4.2c-6.8,0.1-13.5,0-20.3,0s-13.5,0.1-20.3,0c-3.6-0.1-5,1.3-5,4.2  c0,12.1,0,24,0,36.1c0,2.7,1.4,4.1,4.7,4.1c13.8,0,27.4,0,41.2,0c3.2,0,4.6-1.3,4.6-4.1C98,211.6,98,199.5,98.1,187.6z M88.2,221.4  c-10.2-0.1-20.5-0.1-30.7,0c-2.2,0-2.8-0.6-2.8-2.5c0.1-8.9,0.1-18,0-26.9c0-1.9,0.5-2.6,2.8-2.5c10.2,0.1,20.5,0.1,30.7,0  c2.3,0,2.8,0.7,2.7,2.5c-0.1,4.5,0,8.9,0,13.4s-0.1,8.9,0,13.4C91,220.8,90.5,221.4,88.2,221.4z"></path>	<path class="st0" d="M70.6,111.2c-2.3-0.1-9.4-6.4-9.7-8.1c-0.1-1.3,0.4-2.3,1.8-2.9c1.8-0.8,3.4-0.4,4.5,0.8  c2.5,3.2,4.5,2,6.8-0.3c1.8-1.9,3.9-3.6,6.1-5.2c1.5-1.2,3.3-1.2,4.8,0c1.7,1.2,1.7,2.9,0.3,4.1c-4.1,3.7-8.3,7.3-12.4,10.8  C72,110.9,71.1,111,70.6,111.2z"></path>	<path class="st0" d="M70.6,155.7c2.9-2.7,5.9-5.4,8.8-8c1.7-1.6,3.6-2,5.5-0.4c1.9,1.7,1.3,3.3-0.5,4.8c-3.7,3.2-7.4,6.5-11.1,9.7  c-1.9,1.7-3.9,1.7-5.9,0c-1.7-1.5-3.3-3-5.1-4.5c-1.8-1.6-2.3-3.2-0.4-4.8c1.9-1.6,3.8-1,5.5,0.6C68.4,153.9,69.5,154.7,70.6,155.7  z"></path></g></svg>