<svg xmlns="http://www.w3.org/2000/svg" xmlns:xlink="http://www.w3.org/1999/xlink" id="Layer_1" x="0px" y="0px" viewBox="0 0 256 256" style="enable-background:new 0 0 256 256;" xml:space="preserve"><style type="text/css">	.st0{fill:#FFFFFF;}	.st1{font-family:'ArialMT';}	.st2{font-size:59.8049px;}</style><path class="st0" d="M187,36.7c1.5,1.5,3.1,2.9,4.6,4.5c1.2,1.3,1.7,2.9,1.7,4.8c0,44.3,0,88.6-0.1,132.9c0,5.3-2.3,9.6-6.8,12.8 c-1.8,0.4-1.7-1-1.7-2c-0.1-2.1-0.2-4.4-0.5-6.5c0.9-1.9,1.2-4.1,1.2-6.2c0-41.9,0-83.7,0-125.7c-0.2-0.2-0.3-0.5-0.4-0.8 c0.2-3.8,0-7.4,0.2-11.2C185.3,38,184.9,36.3,187,36.7z"></path><path class="st0" d="M74.8,193.3c-5.2-2.2-8.5-6.1-9.4-11.8c-0.6-1.8,0.1-3.5,0.1-5.4c-0.1-24.6,0.1-49.2-0.1-73.8 c-0.1-12.7,0.2-25.2,0.1-37.9c0-1.5-0.5-3-0.1-4.7c0.7-2.1,2.3-2.6,4.3-2.3c1.9,0.3,2.9,1.7,3.1,3.6c0.1,0.8,0,1.6,0,2.4 c0,37.3,0,74.7,0,112c0,3.5,0.4,6.7,2.9,9.3c-0.2,1.9-0.1,3.9-0.2,5.8C75.4,191.7,75.5,192.6,74.8,193.3z"></path><path class="st0" d="M227.4,218c-3.1,0-6.3,0-9.4,0c-1.3-2-0.8-4.3-0.5-6.4c0.2-1.8,2.1-0.7,2.9-1.4c0-33.8,0-67.4,0-101.2 c-0.3-3-0.3-6-0.2-9c0-1.2,0.1-2.5,1.8-2.6c4.6,4.2,6.4,9.3,6.4,15.3c0,26.3,0,52.6,0,78.9c0,0.7-0.1,1.5-0.1,2.2 c-0.8,5.7-0.4,11.5-0.3,17.2C228.1,213.3,228.8,215.8,227.4,218z"></path><path class="st0" d="M29.8,210.1c0-32.8,0-65.6,0-98.4c0-5.8,2.1-10.7,6.5-14.6c1.1,1.3,0.8,2.9,0.8,4.5c-0.2,35.2,0,70.3-0.1,105.5 c0,2.6,0.2,5.3,0.1,7.9c0,1,0,2.1-0.8,3c-1.9,0.1-4,0.1-5.9,0.2C28.6,216.5,28.4,212.9,29.8,210.1z"></path><path class="st0" d="M171.9,50.7c-2.5,0.3-5.1,0.4-7.5-0.1c-2.6-0.5-3.9-2-4.3-4.9c-0.4-3-0.2-6-0.2-9c0-5.3-0.2-10.6-0.1-15.9 c0-1.1-0.1-2.3,0.8-3.2c2.2,0,4.6-0.5,6.8,0.4c0.8,0.3,1.7,0.5,2,1.5c-0.3,3.2,0.1,6.5-0.6,9.6c-0.7,0.9-0.6,2-0.6,3 c0,2.4,0.1,5,0,7.4c0,1.5,0.4,2.7,1.8,3.4c0.8,1.1,0.6,2.4,0.6,3.8C170.8,48.1,171.1,49.4,171.9,50.7z"></path><path class="st0" d="M227.4,218c0-6.7,0-13.5,0-20.2c0-1.4,0.1-2.7,0.9-4c0,5,0.1,9.8,0.1,14.8c0,1.2,0.1,1.7,1.6,2 c3.2,0.7,5.2,3.1,5.6,6.5c0.4,3.8,0.4,7.5,0,11.3c-0.5,4.7-3.3,7.6-7.5,9.4c-1.3,0.5-1.6-0.5-1.6-1.3c-0.2-2.1-0.4-4.4,0.1-6.5 c1.6-1.7,1.4-3.9,1.3-6C227.7,222,228.2,219.9,227.4,218z"></path><path class="st0" d="M36.1,218c0-40.3,0-80.6,0-120.9c2.1-2,4.5-3.5,7.4-4.2c1.3,2.7,1.2,5.4,0.1,8.1c-3,2.4-6.2,4.8-6.1,9.3 c-0.3,0.8-0.2,1.6-0.2,2.4c0,31.6,0,63.3,0,95c0,0.8-0.2,1.6,0.3,2.4l0,0c0.6,0.6,1.8-0.2,2.3,0.8c0.5,2.3,0.9,4.8-0.4,7.1 C38.5,218,37.4,218,36.1,218z"></path><path class="st0" d="M73.8,29.3c-1.7,5-0.7,10-0.9,15.1c-0.1,1.3-0.2,2.6-1.1,3.6c-1,1-2.2,1.7-3.8,1.2s-2.9-1.4-2.9-3 c0-5.8-0.9-11.7,0.6-17.4c1.1-4,3.4-7,7.2-9c1.8,2.4,1.1,5.3,1.1,7.9C73.9,28.3,73.6,28.8,73.8,29.3z"></path><path class="st0" d="M29.8,210.1c0.3,2.6-0.5,5.5,0.6,8.1c0,2.3,0.1,4.6,0,6.9c-0.1,2.1,0.4,3.9,1.9,5.4c0.1,2.6,1,5.5-1,7.9 c-5.4-1.4-8.1-5.3-8.7-10.4c-0.4-3.3-0.3-6.8,0-10.1C22.9,213.3,25.6,211,29.8,210.1z"></path><path class="st0" d="M86.6,150.2c-9.9-7.4-9.7-22.9,0.5-30.5c1.2,1,1.1,2.4,1.2,3.9c0.2,2-0.3,4.1,0.2,6.1c-1.4,3-1.6,6.2-0.9,9.4 c-0.3,2.7-0.3,5.5-0.3,8.3C87.3,148.3,87.4,149.4,86.6,150.2z"></path><path class="st0" d="M65.3,59.9c0.6,2.4,0.5,4.9,0.5,7.3c0,32.2,0,64.4,0,96.6c0,5.9,0.4,11.9-0.5,17.7c-0.8-1.2-0.5-2.5-0.5-3.9 c0-24.8,0-49.7,0-74.4c0-3.9,0.4-3.3-3.4-3.4c-1,0-1.9-0.1-2.9-0.1c-1.2-2.5-1.1-5.2,0-7.7c2-0.3,4.7,0.8,6-0.5 c1.3-1.4,0.4-4.1,0.4-6.2c0.1-7.6,0-15.1,0-22.7C64.8,61.7,64.5,60.7,65.3,59.9z"></path><path class="st0" d="M187,36.7c-1.3,0.2-1,1.2-1,2.1c0,2.9,0,5.9,0,8.9c0,1,0.1,2-0.5,2.8c-1.2,0.5-2.4,0.2-3.6,0.2 c-2.7,0-2.9-0.2-3-2.8c0-1.4-0.1-2.7,0.2-4.2c0.4-1,1-1.3,2-0.9c-1.1-1.7-3.4-2.7-4.1-5.2c-0.2-2.2-0.2-4.6-0.1-6.8 c0.1-1.1,0.1-2.3,1.6-2.6C181.2,31.2,184.5,33.5,187,36.7z"></path><path class="st0" d="M105.4,140.5c-1.8,2.3-3.8,2.6-5.9,0.7c-1.8-1.6-3.5-3.4-5.3-5.3c-1.5-1.6-1.4-3.9,0.1-5.4s3.3-1.5,5.2-0.4 c0.3,0.2,0.6,0.3,0.8,0.6c1.3,1.9,2.6,1.7,4.1,0c0.9,0.8,0.7,1.9,0.8,2.9C105.2,136,105.1,138.2,105.4,140.5z"></path><path class="st0" d="M220.5,210.1c-2.3,0.4-2.7,1.9-2.5,4c0.1,1.3,0,2.6,0,4c-3.2,0-6.4,0.1-9.6,0.1c-2.2,0-4-1.7-4.1-3.8 s1.6-4,4.1-4.1C212.5,210.1,216.5,210.1,220.5,210.1z"></path><path class="st0" d="M83.2,186.9c2.4,0,5,0,7.4,0c1.1,1.3,0.7,2.9,0.7,4.5s0.6,2.2,2.1,2.2c1.7,0,3.4,0,5.1,0c2.6-0.1,5.2-0.1,7.8,0 c2.8-0.1,5.6-0.1,8.4,0c2.4-0.1,5-0.1,7.4,0c2.3-0.1,4.7-0.1,7,0c2.8-0.1,5.6-0.1,8.4,0c2.4-0.1,5-0.1,7.4,0c2.8-0.1,5.6-0.1,8.4,0 c2.4-0.1,5-0.1,7.4,0c2.9-0.1,5.9-0.1,8.8,0c2.6,0,5.3-0.1,7.8,0c0.6,0,1.2,0.2,1.6,0.7c-0.7,0.5-1.6,0.4-2.4,0.4 c-30.5,0-60.9,0-91.4,0c-0.6,0-1.1-0.1-1.7-0.1C81.6,192.2,82.2,189.5,83.2,186.9z"></path><path class="st0" d="M178.5,28.3c-1.4,1.3-0.8,3-0.9,4.7c-0.1,1.7,0,3.4,0,5.2c-2.2-0.5-8.5-6.9-8.9-9c0.3-3.2-0.8-6.6,0.9-9.7 C172.7,22.2,175.8,25,178.5,28.3z"></path><path class="st0" d="M167.6,231c4.2,0,8.2,0,12.4,0c1.2,2.5,1.2,5.2,0,7.7c-4.2,0-8.2,0-12.4,0C166.5,236.2,166.5,233.5,167.6,231z"></path><path class="st0" d="M96,115.8c3.1-0.3,6.4-0.4,9.4,0.7c2.6,0.9,3.9,2.8,3.2,5c-0.7,2.4-2.9,3.4-5.7,2.5c-2.3-0.8-4.7-0.8-7-0.5 C95,121,94.6,118.5,96,115.8z"></path><path class="st0" d="M92.5,238.7c-4,0-7.9,0-11.9,0c-1.2-2.5-1.2-5.2,0-7.7c4,0,7.9,0,11.9,0C93.7,233.5,93.7,236.2,92.5,238.7z"></path><path class="st0" d="M80.6,231c0,2.5,0,5.2,0,7.7c-4,0-7.9,0-11.9,0c-0.8-2.6-0.4-5.2,0-7.8C72.7,231,76.7,231,80.6,231z"></path><path class="st0" d="M152.8,124.7c3,0,6.1-0.1,9.1-0.1c2.1,0,3.4,1.1,3.8,3.1c0.3,2.1-0.3,4-2.8,4.4c-3.3,0.3-6.7,0.3-10,0 C151.6,129.6,151.6,127.2,152.8,124.7z"></path><path class="st0" d="M146.4,145.6c-2.7,0.4-5.4,0.2-8.1,0.1c-2.5-0.1-4.4-2-4.2-4.3c0.1-2.2,1.8-3.5,4.5-3.5c2.6,0,5.3,0,7.9,0.1 C147.5,140.5,147.5,143,146.4,145.6z"></path><path class="st0" d="M122.7,224.9c-3.2,0-6.6,0-9.8-0.1c-1.3-2.2-0.8-4.6-0.5-6.9c0.1-0.7,0.5-1.4,1.5-0.9c10.2,0,20.4,0,30.6-0.1 c-0.7,2.1-2.6,1-4,1.3c-2.7,0.1-5.5,0.1-8.2,0c-2.2,0.1-4.4,0-6.6,0c-1.5,0-2.1,0.7-2.2,2.2C123.4,222,123.7,223.6,122.7,224.9z"></path><path class="st0" d="M113.8,217c-1.1,0.1-1,1-1,1.8c0,2,0,4.1,0,6c-2.5-0.3-4.2-2-5.7-3.8c-0.9-1-1.4-2.3-2.7-3.1 c-1.3-2-1-4.3-0.5-6.3c0.6-2.2,2.6-1.1,4.1-1.1C110.9,211.8,112,214.8,113.8,217z"></path><path class="st0" d="M63.8,210.2c6.9,0,13.9,0,20.8,0c0.1,0.3,0,0.6-0.3,0.7c-1.2,0.6-2.5,0.3-3.9,0.4c-2.5,0.1-5.1,0.1-7.6,0 c-1.7,0-2.3,0.7-2.3,2.3c0,1.4,0.3,2.9-0.7,4.3c-3.4,0-6.9,0-10.3,0c-1.2-2.3-0.9-4.8-0.3-7.2C60.6,209.8,62.3,210.8,63.8,210.2z"></path><path class="st0" d="M107.8,142.9c0.5-0.8,1-1.7,1.5-2.5c1.4-2.2,3.4-2.9,5.4-1.9c2,1.1,2.7,3.4,1.5,5.8c-1.7,3.2-4,6-7.4,7.6 c-1.2,0.5-1.5-0.4-1.6-1.2C107.1,148.1,106.6,145.4,107.8,142.9z"></path><path class="st0" d="M180,238.7c0-2.5,0-5.2,0-7.7c3.6,0,7.3,0,10.8,0c1.2,2.5,1.2,5.2,0,7.7C187.3,238.7,183.6,238.7,180,238.7z"></path><path class="st0" d="M167.6,231c0,2.5,0,5.2,0,7.7c-3.6,0-7.3,0-10.8,0c-1.2-2.5-1.2-5.2,0-7.7C160.4,231,164.1,231,167.6,231z"></path><path class="st0" d="M92.5,238.7c0-2.5,0-5.2,0-7.7c3.6,0,7.3,0,10.8,0c1.2,2.5,1.2,5.2,0,7.7C99.8,238.7,96.2,238.7,92.5,238.7z"></path><path class="st0" d="M212.6,100.3c-1.9-0.5-3.9-0.5-5.9-0.5c-3.3,0-5.3-1.4-5.5-3.8s1.5-4,4.9-4.4c2.3-0.3,4.8-0.2,7,0.7 C213.2,95.1,213.7,97.8,212.6,100.3z"></path><path class="st0" d="M68.8,231c1,2.6,0.1,5.2,0,7.8c-3.4,0-6.9,0-10.3,0c-1.2-2.6-1.2-5.2,0-7.8C61.9,231,65.3,231,68.8,231z"></path><path class="st0" d="M111.2,124c1.1-1.1,2.1-2.3,3.2-3.3c2-1.8,4.2-1.9,5.9-0.1c1.4,1.5,1.3,3.9-0.4,5.7c-2.3,2.3-4.7,4.5-7,6.7 c-1.8,0.4-1.5-1-1.6-1.9C111,128.7,111,126.4,111.2,124z"></path><path class="st0" d="M212.6,100.3c0.2-2.6-0.6-5.4,0.6-7.9c3.3,1,6.6,2.1,8.9,5c-1.3,0.5-1.1,1.6-1.1,2.6c-0.1,2.9,0.4,6-0.5,8.9 C219.1,104.9,216.7,101.8,212.6,100.3z"></path><path class="st0" d="M218.5,238.7c-3.4,0-6.9,0-10.3,0c-1.2-2.5-1.2-5.2,0-7.7c3.4,0,6.9,0,10.3,0 C219.7,233.5,219.7,236.2,218.5,238.7z"></path><path class="st0" d="M121.7,231c3.4,0,6.9,0,10.3,0c1.2,2.5,1.2,5.2,0,7.7c-3.4,0-6.9,0-10.3,0C120.5,236.2,120.5,233.5,121.7,231z"></path><path class="st0" d="M69.8,218c0-1.8,0.1-3.6,0-5.4c-0.1-1.5,0.6-2,2-1.9c2.9,0.1,5.9,0,8.9,0c1.2,2.4,1.2,4.9,0,7.3 C77,218,73.5,218,69.8,218z"></path><path class="st0" d="M193.9,210.6c2.2,0.7,2.7,2.4,2.3,4.5c-0.4,1.9-1.9,2.9-4,2.9c-2.4,0-4.9,0-7.3-0.1c-1.2-2.4-1.1-5-0.1-7.4 C187.9,210.3,190.8,210.2,193.9,210.6z"></path><path class="st0" d="M111.2,124c1.3,2.1,0.3,4.4,0.6,6.6c0.1,0.8-0.5,2,0.9,2.4c-1.9,3-5.1,4.9-7.4,7.4c-1-0.5-0.9-1.4-0.9-2.3 c0-2.4,0-4.9-0.1-7.3C106.6,128.6,108.9,126.4,111.2,124z"></path><path class="st0" d="M146.4,145.6c0-2.5,0-5.1,0-7.6c3.3,0,6.6,0,9.9,0c1.1,2.5,1.2,5.1,0,7.6C153,145.9,149.7,145.9,146.4,145.6z"></path><path class="st0" d="M96,115.8c0,2.6,0,5.2,0,7.8c-3,1.3-6,2.6-7.5,6c-1.3-0.3-0.8-1.4-0.9-2.2c-0.1-2.5,0.1-5.2-0.5-7.7 C89.7,117.5,92.6,116.2,96,115.8z"></path><path class="st0" d="M152.8,132.1c3.3,0,6.7,0,10,0.1c-0.3,0.1-0.6,0.3-0.9,0.3c-7.9,0-15.9,0.1-23.8,0c-2.3,0-4.1-2.1-4-4.2 c0.1-2.1,1.7-3.5,4.2-3.6c1.7,0,3.4,0,5.2,0.1c1,1.2,0.7,2.8,0.7,4.3c0,1.8,0.7,2.4,2.4,2.4C148.7,131.3,150.9,130.7,152.8,132.1z"></path><path class="st0" d="M179.5,43.1c0,0.5,0,1,0,1.4c0,6,0,6,5.9,6c0,0.2,0,0.3,0,0.5c-4.5-0.1-9-0.2-13.5-0.3 c-1.4-0.1-1.9-0.7-1.8-2.2c0.1-1.8,0-3.6,0-5.4C173.2,41.8,176.3,41.8,179.5,43.1z"></path><path class="st0" d="M31.3,238.3c0.6-1.7,0.4-3.5,0.5-5.3c0-0.8-0.3-1.8,0.5-2.5c2.9,1,6,0.2,8.9,0.6c1.2,2.6,1.2,5.2,0,7.8 C37.9,238.7,34.5,239.3,31.3,238.3z"></path><path class="st0" d="M58.4,231c0,2.6,0,5.2,0,7.8c-3.1,0-6.3,0-9.4,0c-1.2-2.6-1.2-5.2,0-7.8C52.2,231,55.3,231,58.4,231z"></path><path class="st0" d="M103.4,238.7c0-2.5,0-5.2,0-7.7c3.1,0,6.3,0,9.4,0c1.2,2.5,1.2,5.2,0,7.7C109.6,238.7,106.5,238.7,103.4,238.7z "></path><path class="st0" d="M160.7,17.5c-0.7,9.4-0.4,18.8-0.5,28.2c-0.8-2.8-0.2-5.7-0.3-8.5c-0.1-3.2-0.1-6.4,0-9.6 c0.1-1.9-0.6-2.4-2.4-2.2c-1.5,0.1-3.1,0-4.7,0c-1.2-2.5-1.2-5.2,0-7.7C155.5,17.5,158.1,17.5,160.7,17.5z"></path><path class="st0" d="M105.4,25.2c-2.9,0-5.9,0-8.9,0c-1.2-2.5-1.2-5.2,0-7.7c2.9,0,5.9,0,8.9,0C106.6,20,106.6,22.7,105.4,25.2z"></path><path class="st0" d="M193.9,210.6c-2.9,0-6,0-8.9,0c-2.4,1.4-5.2,0.5-7.7,0.7c-1.8,0.1-4-0.6-5.6,0.3c-1.8,1-0.5,3.3-0.9,5 c-0.1,0.5-0.3,0.9-0.6,1.3c-2.4,0-5,0-7.4,0c-1.2-2.5-1.2-5.2,0-7.7c9.8,0,19.7,0,29.6-0.1C192.9,210.1,193.5,210.1,193.9,210.6z"></path><path class="st0" d="M112.8,238.7c0-2.5,0-5.2,0-7.7c2.9,0,6,0,8.9,0c0,2.5,0,5.2,0,7.7C118.8,238.7,115.7,238.7,112.8,238.7z"></path><path class="st0" d="M190.8,238.7c0-2.5,0-5.2,0-7.7c2.9,0,5.9,0,8.9,0c1.2,2.5,1.2,5.2,0,7.7C196.8,238.7,193.9,238.7,190.8,238.7z "></path><path class="st0" d="M156.8,231c0,2.5,0,5.2,0,7.7c-2.9,0-6,0-8.9,0c-1.2-2.5-1.2-5.2,0-7.7C150.9,231,153.8,231,156.8,231z"></path><path class="st0" d="M140.5,217.5c1.3-0.3,2.7,0.6,4-0.6c0.9-1.6,2.1-3,3.4-4.5c1.2,0.8,1.2,2,1.2,3.2c0.1,2.4,0.1,4.9-0.1,7.3 c-2.4,2.5-5.6,1.9-8.5,1.9C139.2,222.5,139.2,220,140.5,217.5z"></path><path class="st0" d="M86.6,150.2c0-2.7,0-5.6,0-8.3c0-1.1,0.2-2.1,1-2.9c1.1,3.2,3.6,5.2,6.4,6.9c0.6,2.6,0.6,5.4-0.5,7.9 C90.8,153.3,88.7,152,86.6,150.2z"></path><path class="st0" d="M122.7,224.9c0.1-2.3-1-5.4,0.4-6.8c1.5-1.6,4.7-0.4,7-0.6c0.6-0.1,1.3,0,1.9,0c1.2,2.4,1.2,5,0,7.4 C128.9,224.9,125.8,224.9,122.7,224.9z"></path><path class="st0" d="M152.8,132.1c-2.5,0-5.1,0-7.5,0c-1.3,0-1.9-0.4-1.8-1.8c0.1-1.8,0-3.8,0-5.6c3.1,0,6.3,0,9.4,0 C152.8,127.1,152.8,129.5,152.8,132.1z"></path><path class="st0" d="M80.6,218c0-2.4,0-4.9,0-7.3c1.3,0,2.6,0,4,0c1.8-0.4,3.6-0.3,5.6,0c1,2.4,1.1,5-0.1,7.4 C86.9,218,83.8,218,80.6,218z"></path><path class="st0" d="M179.1,194.4c-0.5,0-1-0.1-1.5-0.1c-1.2-2.4-1.2-5,0-7.4c2.7-0.5,5.1-1.8,6.8-4.1c2,1.6,0.8,4,1.1,6 c0.2,0.9-0.5,2.2,1.1,2.5C184.4,193.3,181.8,194.1,179.1,194.4z"></path><path class="st0" d="M83.2,186.9c0.2,2.5-0.5,5.2,0.4,7.7c-3,0.3-6,0-8.8-1.3c0-1.9,0-4,0-5.9c0-0.9-0.1-1.8,0.9-2.3 C77.9,186.4,80.4,186.9,83.2,186.9z"></path><path class="st0" d="M149,223.1c-1.1-0.8-0.6-1.9-0.6-2.9c-0.2-2.5,0.3-5.1-0.5-7.6c0.9-2.1,2.8-2.4,4.8-2.3c0.9,0,1.7,0.1,2.6,0.1 c1.2,2.5,1.2,5.2,0,7.7c-2.2-0.3-3.1,1.5-4.2,2.8C150.5,221.6,149.8,222.4,149,223.1z"></path><path class="st0" d="M218.5,238.7c0-2.5,0-5.2,0-7.7c2.6-0.4,5.5,0.6,7.9-1c0.9,1.8,0.3,3.9,0.5,5.8c0.1,0.8-0.3,1.9,1.1,2.1 C225,239.4,221.7,238.7,218.5,238.7z"></path><path class="st0" d="M93.5,153.7c0-2.6-0.2-5.3,0.5-7.9c2.5,0.9,5.2,1.2,7.9,0.6c1.2,2.6,1.1,5.2,0,7.8 C99.1,155.2,96.3,154.8,93.5,153.7z"></path><path class="st0" d="M96.5,17.5c0,2.5,0,5.2,0,7.7c-2.8,0-5.6,0-8.4,0c-1.2-2.5-1.2-5.2,0-7.7C90.9,17.5,93.7,17.5,96.5,17.5z"></path><path class="st0" d="M105.4,25.2c0-2.5,0-5.2,0-7.7c2.8,0,5.6,0,8.4,0c1.2,2.5,1.2,5.2,0,7.7C111,25.2,108.2,25.2,105.4,25.2z"></path><path class="st0" d="M137.5,25.2c-2.8,0-5.6,0-8.4,0c-1.2-2.5-1.2-5.2,0-7.7c2.8,0,5.6,0,8.4,0C138.7,20,138.7,22.7,137.5,25.2z"></path><path class="st0" d="M132,238.7c0-2.5,0-5.2,0-7.7c2.8,0,5.6,0,8.4,0c1.2,2.5,1.2,5.2,0,7.7C137.6,238.7,134.9,238.7,132,238.7z"></path><path class="st0" d="M199.8,238.7c0-2.5,0-5.2,0-7.7c2.8,0,5.6,0,8.4,0c0,2.5,0,5.2,0,7.7C205.3,238.7,202.6,238.7,199.8,238.7z"></path><path class="st0" d="M169.6,194.3c-2.9,0-6,0-8.9,0c-1.2-2.4-1.2-5,0-7.4c2.9,0,6,0,8.9,0C170.8,189.3,170.8,191.9,169.6,194.3z"></path><path class="st0" d="M73.8,29.3c-0.8-1-0.5-2.2-0.4-3.3c0.1-2-0.4-4.1-0.5-6.1c2.3-1.7,5.1-2.4,7.9-2.3c1.2,2.5,1.2,5.2,0,7.7 C77.8,25.6,75.5,26.9,73.8,29.3z"></path><path class="st0" d="M156.3,145.6c0-2.5,0-5.1,0-7.6c2.4,0,5,0,7.4,0c1.1,1.3,0.7,2.9,0.7,4.5c0,1.5,0.6,2.2,2.2,2.2 c1.4,0,2.7,0,4.2,0s3.1-0.4,4.5,0.8c-3,0.7-6.2,0.2-9.3,0.3C162.7,145.8,159.5,145.6,156.3,145.6z"></path><path class="st0" d="M129.1,17.5c0,2.5,0,5.2,0,7.7c-2.6,0-5.3,0-7.9,0c-1.2-2.5-1.2-5.2,0-7.7C123.8,17.5,126.5,17.5,129.1,17.5z"></path><path class="st0" d="M152.8,17.5c0,2.5,0,5.2,0,7.7c-2.6,0-5.3,0-7.9,0c-1.2-2.5-1.2-5.2,0-7.7C147.5,17.5,150.2,17.5,152.8,17.5z"></path><path class="st0" d="M49,231c0,2.6,0,5.2,0,7.8c-2.6,0-5.3,0-7.9,0c0-2.6,0-5.2,0-7.8C43.8,231,46.4,231,49,231z"></path><path class="st0" d="M114.8,194.3c-2.8,0-5.6,0-8.4,0c-1.2-2.4-1.2-5,0-7.4c2.8,0,5.6,0,8.4,0C115.9,189.3,115.9,191.9,114.8,194.3z "></path><path class="st0" d="M59.5,210.6c0,2.4,0,4.9,0,7.4c-2.8,0-5.6,0-8.4,0c-1.2-2.4-1.1-5-0.1-7.4C53.8,210.3,56.6,210.2,59.5,210.6z"></path><path class="st0" d="M132,224.9c0-2.4,0-5,0-7.4c2.8,0,5.6,0,8.4,0c0,2.4,0,5,0,7.4C137.6,224.9,134.9,224.9,132,224.9z"></path><path class="st0" d="M153.3,194.3c-2.8,0-5.6,0-8.4,0c-1.2-2.4-1.2-5,0-7.4c2.8,0,5.6,0,8.4,0C154.4,189.3,154.4,191.9,153.3,194.3z "></path><path class="st0" d="M137.5,194.3c-2.8,0-5.6,0-8.4,0c-1.2-2.4-1.2-5,0-7.4c2.8,0,5.6,0,8.4,0C138.6,189.3,138.6,191.9,137.5,194.3z "></path><path class="st0" d="M43.6,101c0-2.7,0-5.4-0.1-8.1c2.3-1.2,4.9-1,7.4-0.9c1.1,2.5,1.2,5.2,0,7.7C48.5,99.9,46,99.9,43.6,101z"></path><path class="st0" d="M177,210.6c2.6,0,5.3,0,7.9,0c0,2.4,0,4.9,0,7.3c-2.6,0-5.3,0-7.9,0C175.8,215.5,175.8,213,177,210.6z"></path><path class="st0" d="M169.6,194.3c0-2.4,0-5,0-7.4c2.6,0,5.3,0,7.9,0c0,2.4,0,5,0,7.4C174.9,194.3,172.3,194.3,169.6,194.3z"></path><path class="st0" d="M51,99.7c0-2.5,0-5.2,0-7.7c2.4,0,5,0,7.4,0c0,2.5,0,5.2,0,7.7C56,99.9,53.5,99.9,51,99.7z"></path><path class="st0" d="M155.3,217.9c0-2.5,0-5.2,0-7.7c2.4,0,5,0,7.4,0c0,2.5,0,5.2,0,7.7C160.2,217.9,157.8,217.9,155.3,217.9z"></path><path class="st0" d="M98.5,194.3c-2.1,0-4.3,0-6.3,0c-1.1,0-1.6-0.4-1.6-1.6c0-1.9,0-3.9,0-5.9c2.6,0,5.3,0,7.9,0 C99.6,189.3,99.6,191.9,98.5,194.3z"></path><path class="st0" d="M80.6,25.2c0-2.5,0-5.2,0-7.7c2.4,0,5,0,7.4,0c0,2.5,0,5.2,0,7.7C85.6,25.2,83.2,25.2,80.6,25.2z"></path><path class="st0" d="M144.9,17.5c0,2.5,0,5.2,0,7.7c-2.4,0-5,0-7.4,0c0-2.5,0-5.2,0-7.7C139.9,17.5,142.5,17.5,144.9,17.5z"></path><path class="st0" d="M121.2,17.5c0,2.5,0,5.2,0,7.7c-2.4,0-5,0-7.4,0c0-2.5,0-5.2,0-7.7C116.2,17.5,118.8,17.5,121.2,17.5z"></path><path class="st0" d="M98.5,194.3c0-2.4,0-5,0-7.4c2.6,0,5.3,0,7.9,0c0,2.4,0,5,0,7.4C103.8,194.3,101.1,194.3,98.5,194.3z"></path><path class="st0" d="M140.5,238.7c0-2.5,0-5.2,0-7.7c2.4,0,5,0,7.4,0c0,2.5,0,5.2,0,7.7C145.4,238.7,143,238.7,140.5,238.7z"></path><path class="st0" d="M175.2,145.4c-1.5,0-3-0.1-4.6-0.1c-1.2-2.4-1.2-5,0-7.4c1.4,0,2.7-0.1,4.2-0.1c2.3,0.1,4.1,1.6,4.1,3.8 C178.9,143.6,177.6,145,175.2,145.4z"></path><path class="st0" d="M90.1,218c0-2.4,0-4.9,0-7.3c2.5-0.4,5-0.3,7.5-0.1c1,2.4,1.1,5-0.1,7.4C95,218,92.5,218,90.1,218z"></path><path class="st0" d="M153.3,194.3c0-2.4,0-5,0-7.4c2.4,0,5,0,7.4,0c0,2.4,0,5,0,7.4C158.3,194.3,155.8,194.3,153.3,194.3z"></path><path class="st0" d="M137.5,194.3c0-2.4,0-5,0-7.4c2.4,0,5,0,7.4,0c0,2.4,0,5,0,7.4C142.5,194.3,139.9,194.3,137.5,194.3z"></path><path class="st0" d="M114.8,194.3c0-2.4,0-5,0-7.4c2.4,0,5,0,7.4,0c1.2,2.4,1.2,5,0,7.4C119.7,194.3,117.2,194.3,114.8,194.3z"></path><path class="st0" d="M51,210.6c0,2.4,0,4.9,0,7.4c-2.4,0-5,0-7.4,0c-1.2-2.4-1-4.9-0.2-7.3c1.4-0.6,3-0.1,4.5-0.3 C48.9,210.5,50,210.1,51,210.6z"></path><path class="st0" d="M97.5,218c0-2.4,0-4.9,0-7.3c1.9-0.6,4,0.1,5.9-0.4c1.5,0,3.1-0.5,4.6,0.4c-3.6,0.2-3.5-0.8-3.5,3.8 c0,1.2,0,2.4,0,3.6C102,218,99.8,218,97.5,218z"></path><path class="st0" d="M101.9,154.3c0-2.6,0-5.2,0-7.8c2.2-0.7,4.2-1.9,5.9-3.5c0,2.3,0,4.8,0,7.1c0,0.8-0.2,1.7,1,1.8 C106.8,153.4,104.4,153.8,101.9,154.3z"></path><path class="st0" d="M177,210.6c0,2.4,0,4.9,0,7.3c-2.3,0-4.7,0-6.9,0c0-1.8,0.1-3.6,0-5.4c-0.1-1.5,0.6-2,2-1.9 C173.7,210.7,175.4,210.6,177,210.6z"></path><path class="st0" d="M170.6,137.9c0,2.4,0,5,0,7.4c-6.9,0.2-6.9,0.2-6.9-6.7c0-0.2,0-0.5,0-0.7C166,137.9,168.3,137.9,170.6,137.9z"></path><path class="st0" d="M122.2,194.3c0-2.4,0-5,0-7.4c2.3,0,4.7,0,6.9,0c0,2.4,0,5,0,7.4C126.8,194.3,124.5,194.3,122.2,194.3z"></path><path class="st0" d="M37.7,210.1c-0.8-0.7-0.5-1.7-0.5-2.5c0-31.5,0-63,0-94.7c0-0.9-0.3-1.8,0.4-2.6c0,24.1,0,48.2,0.1,72.4 C37.7,191.9,37.7,201,37.7,210.1z"></path><path class="st0" d="M43.6,210.6c0,2.4,0,4.9,0,7.4c-1.3,0-2.6,0-4,0c0-2.4,0-4.9,0-7.4C41,210.2,42.3,210.2,43.6,210.6z"></path><path class="st0" d="M103.4,210.2c-1.9,0.8-4,0.2-5.9,0.4c-2.4,0-5,0-7.4,0c-1.8,0-3.6,0-5.5,0c0-0.1,0-0.3,0-0.4 C90.9,210.2,97.2,210.2,103.4,210.2z"></path><path class="st0" d="M51,210.6c-1,0-2,0-2.9,0c-0.2-0.1-0.2-0.2-0.2-0.3c0.1-0.1,0.1-0.1,0.2-0.1c5.3,0,10.5,0,15.8,0 c-1.4,0.8-2.9,0.2-4.5,0.4C56.6,210.6,53.8,210.6,51,210.6z"></path><path class="st0" d="M48,210.2c0,0.1,0,0.3,0,0.4c-1.5,0-2.9,0-4.5,0c-1.3,0-2.6,0-4,0c-0.7-0.1-1.4,0.2-1.9-0.5 C41.1,210.1,44.6,210.2,48,210.2z"></path><path class="st0" d="M179.5,43.1c-3.1,0-6.3,0-9.4,0c-1.7,0.1-2.5-0.5-2.4-2.4c0.2-3.3,0-6.7,0.1-10.1c0-0.5-0.6-1.7,0.9-1.4 c2.7,3.1,5.9,6.1,8.9,9c1,1.8,3.1,2.6,4.3,4.8C180.9,43,180.2,43,179.5,43.1z"></path><text transform="matrix(1 0 0 1 81.1323 95.1968)" class="st0 st1 st2">B1</text></svg>