<svg xmlns="http://www.w3.org/2000/svg" xmlns:xlink="http://www.w3.org/1999/xlink" id="Layer_1" x="0px" y="0px" viewBox="0 0 512 512" style="enable-background:new 0 0 512 512;" xml:space="preserve"><g>	<g>		<path d="M346.324,322.217l130.853,108.886V384.85c11.328-19.404,20.186-40.425,26.136-62.633H346.324z"></path>	</g></g><g>	<g>		<path d="M68.053,426.668c-0.502,0.414-1.031,0.774-1.575,1.09c31.543,34.747,72.45,60.816,118.61,74.19V330.176L68.053,426.668z"></path>	</g></g><g>	<g>		<path d="M326.913,10.024v166.441L446.717,85.57C415.064,50.175,373.741,23.571,326.913,10.024z"></path>	</g></g><g>	<g>		<path d="M461.559,103.776l-113.36,86.007h155.064C494.81,158.361,480.493,129.27,461.559,103.776z"></path>	</g></g><g>	<g>		<path d="M508.409,213.258H315.175c-6.482,0-11.738-5.255-11.738-11.738V4.425c-14.108-2.659-28.619-4.168-43.439-4.395   c-17.602-0.269-34.8,1.252-51.435,4.37v197.12c0,6.483-5.256,11.738-11.738,11.738H3.555c-2.534,15.075-3.751,30.597-3.528,46.444   c0.188,13.281,1.4,26.318,3.551,39.039h193.248c6.482,0,11.738,5.255,11.738,11.738v197.074   c15.828,2.991,32.151,4.532,48.83,4.443c15.73-0.085,31.113-1.609,46.043-4.42V310.479c0.001-6.483,5.256-11.738,11.739-11.738   h193.249c2.213-13.111,3.433-26.559,3.564-40.27C512.134,243.067,510.902,227.957,508.409,213.258z"></path>	</g></g><g>	<g>		<path d="M8.708,322.217c8.642,32.178,23.428,61.862,42.999,87.736c0.427-0.495,0.892-0.967,1.413-1.398l104.72-86.338H8.708z"></path>	</g></g><g>	<g>		<path d="M47.523,107.415c-17.549,24.579-30.854,52.389-38.859,82.368H157.83L47.523,107.415z"></path>	</g></g><g>	<g>		<path d="M62.023,88.942l123.066,91.896V9.969C136.634,23.911,94.072,51.762,62.023,88.942z"></path>	</g></g><g>	<g>		<path d="M326.913,336.605v165.375c15.326-4.425,30.072-10.218,44.076-17.274h67.856c16.495,0,30.554-10.421,35.961-25.036   L326.913,336.605z"></path>	</g></g><g></g><g></g><g></g><g></g><g></g><g></g><g></g><g></g><g></g><g></g><g></g><g></g><g></g><g></g><g></g></svg>