<svg xmlns="http://www.w3.org/2000/svg" id="Capa_1" height="512" viewBox="0 0 512 512" width="512"><g><path d="m497 391h-482c-8.284 0-15 6.716-15 15 0 24.853 20.147 45 45 45h422c24.853 0 45-20.147 45-45 0-8.284-6.716-15-15-15z"></path><path d="m151 133.671v119.795c16.251-1.551 32.988-.943 48.633 2.988 14.956 3.735 29.692 10.693 41.367 17.227v-114.844c-9.639-6.431-29.443-18.486-48.633-23.291-15.337-3.838-31.113-3.106-41.367-1.875z"></path><path d="m319.633 135.546c-19.292 4.834-39.023 16.86-48.633 23.276v114.858c11.675-6.533 26.411-13.491 41.367-17.227 17.988-4.541 35.815-4.233 48.633-2.988v-119.81c-10.225-1.2-25.957-1.947-41.367 1.891z"></path><path d="m482 76c0-8.291-6.709-15-15-15h-422c-8.291 0-15 6.709-15 15v285h452zm-91 195c0 9.571-9.003 16.89-18.604 14.561-.264-.073-26.997-6.416-52.764-.015-26.748 6.694-54.36 27.246-54.639 27.451-2.75 2.078-6.013 3.003-8.994 3.003-3.109 0-6.304-.981-8.994-2.988-.278-.205-28.037-20.815-54.639-27.466-25.679-6.416-52.485-.073-52.734 0-9.48 2.355-18.632-4.807-18.632-14.546v-150c0-6.885 4.688-12.876 11.367-14.546 1.392-.352 34.043-8.35 67.266 0 22.661 5.658 44.555 18.598 56.367 26.356 11.812-7.758 33.706-20.698 56.367-26.356 33.237-8.379 65.889-.352 67.266 0 6.68 1.67 11.367 7.661 11.367 14.546z"></path></g></svg>