<svg xmlns="http://www.w3.org/2000/svg" id="Layer_1" height="512" viewBox="0 0 68 68" width="512"><g><path d="m50.76001 53.05201c-.46997.1001-.93005.13013-1.32996.16016-.26001.0199-.62012.04993-.84009.07983-.10986.20007-.23999.53003-.32996.76001-.43005 1.06006-1.0199 2.5-2.53992 2.98999-.30005.1001-.62012.15015-.94006.15015-.52002 0-1-.13013-1.45007-.31006l3.09009 5.58997c.30005.54004 1.12.47009 1.31006-.13l1.25-3.87988 3.94995 1c.60999.1499 1.10999-.49011.80005-1.04004z"></path><path d="m36.67004 57.042c-1.53003-.48999-2.11011-1.92993-2.54004-2.98999-.09998-.22998-.22998-.55994-.32996-.76001-.22009-.03992-.57996-.05994-.83997-.07983-.42004-.03003-.89014-.07007-1.37012-.17017h-.01001l-2.96997 5.38013c-.30994.54993.19006 1.18994.80005 1.04004l3.94995-1 1.25 3.87988c.19006.6001 1 .67004 1.31006.13l3.07997-5.56994c-.43005.16992-.89001.29004-1.40002.29004-.31995 0-.62989-.05005-.92994-.15015z"></path><path d="m45.09766 55.14381c1.16858-.37939 1.31287-2.78833 2.28552-3.49622.98242-.71497 3.3158-.11267 4.03076-1.09509.70789-.97266-.58081-3.00244-.20142-4.17114.36621-1.12744 2.61414-2.00635 2.61414-3.2561 0-1.24951-2.24792-2.12842-2.61401-3.25598-.37952-1.16858.9093-3.19836.20142-4.17102-.71497-.98242-3.04834-.38025-4.03064-1.09521-.97266-.70789-1.11694-3.11694-2.28564-3.49634-1.12744-.36621-2.65552 1.48596-3.90503 1.48596-1.24963 0-2.77759-1.85217-3.90503-1.48596-1.16858.37939-1.31299 2.78833-2.28564 3.49634-.9823.71484-3.31567.11267-4.03064 1.09497-.70789.97266.58081 3.00256.20129 4.17114-.36609 1.12756-2.61401 2.00647-2.61401 3.2561s2.2478 2.12854 2.61401 3.2561c.37939 1.16846-.9093 3.19824-.20142 4.1709.71484.98242 3.04834.38037 4.03064 1.09521.97266.70789 1.11707 3.11694 2.28552 3.49634 1.12769.36621 2.65552-1.48596 3.90527-1.48596 1.24951-.00001 2.77734 1.85217 3.90491 1.48596zm-11.46326-12.01831c0-4.16797 3.39063-7.55859 7.55859-7.55859 4.16699 0 7.55762 3.39063 7.55762 7.55859s-3.39063 7.55859-7.55762 7.55859c-4.16797 0-7.55859-3.39063-7.55859-7.55859z"></path><path d="m41.19299 37.5669c-3.06543 0-5.55859 2.49316-5.55859 5.55859s2.49316 5.55859 5.55859 5.55859c3.06445 0 5.55762-2.49316 5.55762-5.55859s-2.49316-5.55859-5.55762-5.55859z"></path><path d="m28.63 39.76209c.18994-.16003.44995-.38.6001-.54004-.02002-.21997-.11011-.57996-.17017-.82996-.2699-1.1001-.63989-2.59009.29004-3.87.94006-1.29004 2.47998-1.40002 3.61011-1.4801.26001-.0199.61987-.04993.83997-.08984.09998-.19006.22998-.52002.32996-.76001.42993-1.05005 1.01001-2.48999 2.54004-2.98999.30005-.09009.60999-.14014.92993-.14014 1.11011 0 2.01001.56006 2.81006 1.05005.23999.15002.58008.35999.78003.44995.20996-.08997.55005-.29993.79004-.44995.78992-.48999 1.69995-1.05005 2.79993-1.05005.32996 0 .64001.05005.94006.14014 1.52002.5 2.10986 1.93994 2.53992 2.98999.08997.23999.22009.56995.32996.76001.21997.03992.58008.06995.84009.08984 1.12.08008 2.66992.19006 3.59998 1.4801.93005 1.27991.56995 2.77991.29993 3.87-.05994.25-.1499.60999-.17993.82996.15002.16003.40991.38.59998.54004.88.72998 2.07996 1.73999 2.07996 3.35999 0 1.02002-.47998 1.80005-1.05994 2.41992h3.22995v-32.37988h-48v32.37988h17.62c-.57996-.61987-1.06006-1.3999-1.06006-2.41992 0-1.62 1.20007-2.63001 2.07006-3.35999zm-11.60998-21.97998h33.96008c.54993 0 1 .43994 1 1 0 .54993-.45007 1-1 1h-33.96008c-.54993 0-1-.45007-1-1 0-.56006.45007-1 1-1zm-4.53992 15.08997c.0199-.55005.5-1.02002 1.02991-.95996.54993.01001.98999.47998.97009 1.03003l-.02002.5c-.02002.53992-.46008.96997-1 .96997-.01001 0-.02002 0-.03003-.01001-.55005-.01001-.98999-.47998-.96997-1.03003zm7.12989 10.09009h-6.17993c-.27002 0-.52002-.11011-.70996-.30005-.19006-.19006-.29004-.44006-.29004-.70996l.02002-4.92004c.01001-.56006.44995-1 1-1h.01001c.54993 0 1 .44995.98999 1.00989l-.02002 3.92017h5.17993c.55005 0 1 .44995 1 1 0 .54991-.44996.99999-1 .99999zm1.22998-16.68006c-.55994 0-1-.45007-1-1 0-.56006.44006-1 1-1h26.32007c.56006 0 1 .43994 1 1 0 .54993-.43994 1-1 1z"></path><path d="m61.80994 5.16212h-55.61988c-2.31006 0-4.19006 1.87988-4.19006 4.19995v39.98999c0 2.32007 1.88 4.18994 4.19006 4.18994h22.82996l.75-1.34985c-.15002-.13013-.28992-.28003-.42004-.46008-.92993-1.27991-.55994-2.77991-.29004-3.87.02002-.09998.05005-.20996.08008-.32007h-20.14002c-.54993 0-1-.43994-1-1v-34.37988c0-.55005.45007-1 1-1h50c.55005 0 1 .44995 1 1v34.37988c0 .56006-.44995 1-1 1h-5.73999c.02002.11011.04993.22009.06995.32007.27002 1.09009.63013 2.59009-.29993 3.87-.14001.19006-.28992.34998-.45007.48999l.72998 1.31995h8.5c2.31006-.00001 4.19006-1.86988 4.19006-4.18995v-39.98999c0-2.32007-1.88-4.19995-4.19006-4.19995z"></path></g></svg>