<svg xmlns="http://www.w3.org/2000/svg" id="Layer_1" height="512" viewBox="0 0 68 68" width="512"><g><path d="m64.7715 55.03288h-58.92798c-.78308 0-1.35443.72229-1.20276 1.4906.75177 3.80774 4.33093 6.69263 8.63263 6.69263h44.06824c4.3017 0 7.88086-2.88489 8.63257-6.69263.15167-.76831-.41962-1.4906-1.2027-1.4906zm-25.20508 5.09118h-8.51758c-.55273 0-1-.44727-1-1s.44727-1 1-1h8.51758c.55273 0 1 .44727 1 1s-.44727 1-1 1z"></path><path d="m47.46205 23.62211-.46002.27002h7.67999v24.13001h-38.75v-15.79993c-1.08997-.03003-2.19-.1001-3.27997-.21008-.62-.05994-1.21002-.23999-1.72998-.52002v21.54004h48.76996v-31.59998c0-1.41003-1.14996-2.55005-2.56-2.55005h-9.94l.96002 1.17993c.42999.56006.59998 1.25.47998 1.92017-.14996.72997-.57001 1.30993-1.16998 1.63989z"></path><path d="m50.18068 45.32328c.92188 0 1.67188-.75 1.67188-1.67188v-1.34082c0-.55273-.44727-1-1-1s-1 .44727-1 1v1.0127h-4.70508c-.55273 0-1 .44727-1 1s.44727 1 1 1z"></path><path d="m40.792 45.32328h.95898c.55273 0 1-.44727 1-1s-.44727-1-1-1h-.95898c-.55273 0-1 .44727-1 1s.44727 1 1 1z"></path><path d="m12.84205 30.02213c7.81.75 15.33997-.38 22.58997-3.39001 1.08002-.44995 1.72003-1.56006 1.55005-2.71997l-1.16003-7.71997-10.69 6.08997c-.77997.45007-1.67999.69006-2.58997.69006-.38 0-.76001-.05005-1.14001-.13013l-12.01002-2.68994 1.15997 7.72998c.18006 1.15002 1.13001 2.03003 2.29004 2.14001z"></path><path d="m24.14583 20.5452 12.11853-6.91235.76007.14355 3.12408 4.36841-.04645.02734c-.16003.08997-.23004.29004-.16003.45996l2.15002 5.33008c.03998.09985.12.17993.22998.21997.04004.01001.08002.02002.12.02002.06 0 .13-.02002.19-.05005l3.85004-2.27002c.09998-.05005.15997-.1499.17999-.25.01996-.10999 0-.21997-.07001-.31006l-3.60999-4.46997c-.12-.1499-.32001-.17993-.48004-.08997l-.62177.36536-3.40222-4.75732 2.68927-1.53394c.72754-.41504.56348-1.50781-.25385-1.69092l-19.12199-4.28331c-.78491-.17578-1.60718-.05237-2.30585.34619l-17.02136 9.70898c-.72754.41492-.56348 1.50781.25378 1.69092l19.12189 4.28333c.78491.17577 1.60718.05248 2.30591-.3462z"></path></g></svg>