<svg xmlns="http://www.w3.org/2000/svg" id="Study_Material" height="512" viewBox="0 0 512 512" width="512"><g><path d="m86.4 275.2h86.1v86.9h-85.1c-.5 0-1-.4-1-1z"></path><path d="m229.9 202.1.1 175.5c31.4 1.7 63.2 11.1 94.8 28v-172.6c-31.6-18.7-63.5-29.1-94.9-30.9zm84.6 163.8c-4.4 7.2-12 4.2-13.7 3.2-17.4-10.8-35-16.3-52.1-16.3-5.5 0-9.9-4.4-9.9-9.9s4.4-9.9 9.9-9.9c20.9 0 41.9 6.5 62.5 19.2 4.7 2.9 6.2 9 3.3 13.7zm0-35.6c-4.4 7.2-12 4.2-13.7 3.2-17.4-10.8-35-16.3-52.1-16.3-5.5 0-9.9-4.4-9.9-9.9s4.4-9.9 9.9-9.9c20.9 0 41.9 6.5 62.5 19.2 4.7 2.9 6.2 9 3.3 13.7zm0-35.6c-4.5 7.2-12 4.2-13.7 3.2-17.4-10.8-35-16.3-52.1-16.3-5.5 0-9.9-4.4-9.9-9.9s4.4-9.9 9.9-9.9c20.9 0 41.9 6.5 62.5 19.2 4.7 2.9 6.2 9 3.3 13.7zm0-35.6c-4.5 7.2-12 4.2-13.7 3.2-17.4-10.8-35-16.3-52.1-16.3-5.5 0-9.9-4.4-9.9-9.9s4.4-9.9 9.9-9.9c20.9 0 41.9 6.5 62.5 19.2 4.7 2.9 6.2 9 3.3 13.7z"></path><path d="m344.7 233v172.6c31.5-16.9 63.3-26.3 94.7-28v-174.4c0-.6-.5-1-1.1-1-30.9 1.9-62.4 12.3-93.6 30.8zm76 119.8c-17.1 0-34.7 5.5-52.1 16.3-1.6 1-9.4 3.7-13.7-3.2-2.9-4.7-1.4-10.8 3.2-13.7 20.6-12.8 41.7-19.2 62.5-19.2 5.5 0 9.9 4.4 9.9 9.9.1 5.5-4.3 9.9-9.8 9.9zm0-35.6c-17.1 0-34.7 5.5-52.1 16.3-1.6 1-9.4 3.7-13.7-3.2-2.9-4.7-1.4-10.8 3.2-13.7 20.6-12.8 41.7-19.2 62.5-19.2 5.5 0 9.9 4.4 9.9 9.9.1 5.5-4.3 9.9-9.8 9.9zm0-35.6c-17.1 0-34.7 5.5-52.1 16.3-1.6 1-9.4 3.7-13.7-3.2-2.9-4.7-1.4-10.8 3.2-13.7 20.6-12.8 41.7-19.2 62.5-19.2 5.5 0 9.9 4.4 9.9 9.9.1 5.5-4.3 9.9-9.8 9.9zm0-35.6c-17.1 0-34.7 5.5-52.1 16.3-1.6 1-9.4 3.7-13.7-3.2-2.9-4.7-1.4-10.8 3.2-13.7 20.6-12.8 41.7-19.2 62.5-19.2 5.5 0 9.9 4.4 9.9 9.9s-4.3 9.9-9.8 9.9z"></path><path d="m477 221.7v189.3c0 .4-.3.8-.7 1l-141.3 38.4c-.2 0-.4 0-.5 0l-141.3-38.5c-.4-.1-.7-.5-.7-1v-190.5l17.7 4.8v152.4c0 10.5 8.3 19.2 18.8 19.8 31.5 1.7 63.7 12.1 95.7 30.9 6.2 3.6 13.9 3.6 20.1 0 32-18.8 64.2-29.2 95.7-30.9 10.6-.6 18.8-9.3 18.8-19.8v-152.4l16.5-4.5c.6-.1 1.2.3 1.2 1z"></path><g><path d="m347.9 62.6v85c0 .5-.4 1-1 1h-259.5c-.5 0-1-.4-1-1v-85c0-.5.4-1 1-1h259.5c.6 0 1 .4 1 1z"></path></g><path d="m59.8 168.4h-14.9c-5.5 0-9.9 4.4-9.9 9.9s4.4 9.9 9.9 9.9h14.9v47.2h-14.9c-5.5 0-9.9 4.4-9.9 9.9 0 5.5 4.4 9.9 9.9 9.9h14.9 112.8v-34.9c0-9.7 9.5-23.4 25.1-19.2l12.5 3.4v-2.5c0-5.4 2.3-10.7 6.2-14.5 3.9-3.7 9.3-5.7 14.7-5.4 22.3 1.3 44.8 6.4 67.1 15.4v-29.3h-238.4z"></path></g></svg>