<svg xmlns="http://www.w3.org/2000/svg" xmlns:xlink="http://www.w3.org/1999/xlink" id="Layer_1" x="0px" y="0px" viewBox="0 0 256 256" style="enable-background:new 0 0 256 256;" xml:space="preserve"><style type="text/css">	.st0{fill:#FFFFFF;}</style><path class="st0" d="M167.6,230.7c4.2,0,8.2,0,12.4,0c1.2,2.6,1.2,5.3,0,7.9c-4.2,0-8.2,0-12.4,0 C166.5,236.1,166.5,233.4,167.6,230.7z"></path><path class="st0" d="M92.5,238.7c-4,0-7.9,0-11.9,0c-1.2-2.6-1.2-5.3,0-7.9c4,0,7.9,0,11.9,0C93.7,233.4,93.7,236.1,92.5,238.7z"></path><path class="st0" d="M80.6,230.7c0,2.6,0,5.3,0,7.9c-4,0-7.9,0-11.9,0c-0.8-2.7-0.4-5.3,0-8C72.7,230.7,76.7,230.7,80.6,230.7z"></path><path class="st0" d="M180,238.7c0-2.6,0-5.3,0-7.9c3.6,0,7.3,0,10.8,0c1.2,2.6,1.2,5.3,0,7.9C187.3,238.7,183.6,238.7,180,238.7z"></path><path class="st0" d="M167.6,230.7c0,2.6,0,5.3,0,7.9c-3.6,0-7.3,0-10.8,0c-1.2-2.6-1.2-5.3,0-7.9 C160.4,230.7,164.1,230.7,167.6,230.7z"></path><path class="st0" d="M92.5,238.7c0-2.6,0-5.3,0-7.9c3.6,0,7.3,0,10.8,0c1.2,2.6,1.2,5.3,0,7.9C99.8,238.7,96.2,238.7,92.5,238.7z"></path><path class="st0" d="M68.8,230.7c1,2.7,0.1,5.3,0,8c-3.4,0-6.9,0-10.3,0c-1.2-2.7-1.2-5.3,0-8C61.9,230.7,65.3,230.7,68.8,230.7z"></path><path class="st0" d="M218.5,238.7c-3.4,0-6.9,0-10.3,0c-1.2-2.6-1.2-5.3,0-7.9c3.4,0,6.9,0,10.3,0 C219.7,233.4,219.7,236.1,218.5,238.7z"></path><path class="st0" d="M121.7,230.7c3.4,0,6.9,0,10.3,0c1.2,2.6,1.2,5.3,0,7.9c-3.4,0-6.9,0-10.3,0 C120.5,236.1,120.5,233.4,121.7,230.7z"></path><path class="st0" d="M31.3,238.3c0.6-1.8,0.4-3.7,0.5-5.4c0-0.8-0.3-1.9,0.5-2.6c2.9,1,6,0.2,8.9,0.6c1.2,2.7,1.2,5.3,0,8 C37.9,238.7,34.5,239.3,31.3,238.3z"></path><path class="st0" d="M58.4,230.7c0,2.7,0,5.3,0,8c-3.1,0-6.3,0-9.4,0c-1.2-2.7-1.2-5.3,0-8C52.2,230.7,55.3,230.7,58.4,230.7z"></path><path class="st0" d="M103.4,238.7c0-2.6,0-5.3,0-7.9c3.1,0,6.3,0,9.4,0c1.2,2.6,1.2,5.3,0,7.9C109.6,238.7,106.5,238.7,103.4,238.7z "></path><path class="st0" d="M112.8,238.7c0-2.6,0-5.3,0-7.9c2.9,0,6,0,8.9,0c0,2.6,0,5.3,0,7.9C118.8,238.7,115.7,238.7,112.8,238.7z"></path><path class="st0" d="M190.8,238.7c0-2.6,0-5.3,0-7.9c2.9,0,5.9,0,8.9,0c1.2,2.6,1.2,5.3,0,7.9C196.8,238.7,193.9,238.7,190.8,238.7z "></path><path class="st0" d="M156.8,230.7c0,2.6,0,5.3,0,7.9c-2.9,0-6,0-8.9,0c-1.2-2.6-1.2-5.3,0-7.9C150.9,230.7,153.8,230.7,156.8,230.7z "></path><path class="st0" d="M132,238.7c0-2.6,0-5.3,0-7.9c2.8,0,5.6,0,8.4,0c1.2,2.6,1.2,5.3,0,7.9C137.6,238.7,134.9,238.7,132,238.7z"></path><path class="st0" d="M199.8,238.7c0-2.6,0-5.3,0-7.9c2.8,0,5.6,0,8.4,0c0,2.6,0,5.3,0,7.9C205.3,238.7,202.6,238.7,199.8,238.7z"></path><path class="st0" d="M49,230.7c0,2.7,0,5.3,0,8c-2.6,0-5.3,0-7.9,0c0-2.7,0-5.3,0-8C43.8,230.7,46.4,230.7,49,230.7z"></path><path class="st0" d="M140.5,238.7c0-2.6,0-5.3,0-7.9c2.4,0,5,0,7.4,0c0,2.6,0,5.3,0,7.9C145.4,238.7,143,238.7,140.5,238.7z"></path><g>	<path class="st0" d="M237.4,207c-0.1-2.1-1.8-2.9-3.8-2.9c-5.1-0.2-5.1-0.3-5.1-5.4c0-2.5,0-5.2,0-7.8c0-34.2-0.2-68.5,0.1-102.7  c0.1-12.1-8.3-18.5-17.2-17.7c-1.6,0.1-3.2,0-4.8,0c1.4-11.2-0.1-14.2-9.6-19.4c-12.2-6.7-24.4-13.3-36.6-19.9  c-2.1-1.2-4.3-2.4-5.8,0.4c-1.3,2.8,0.5,4.1,2.8,5.3c13,7,26,14.1,38.9,21.1c2.6,1.4,4.6,3.3,4.6,6.5c0.1,3.4-2,5.3-4.7,6.9  c-12.3,6.7-24.6,13.4-36.8,20.2c-1.9,1-2.8,1.1-4.2-0.7c-5.8-7-11.7-13.9-17.6-20.8c-1.9-2.2-3.9-4.5-5.7-6.7  c-1.4-1.8-3.3-2.2-4.9-1c-1.9,1.4-1.5,3.4,0,5.1c1.1,1.3,2.2,2.5,3.2,3.8c6.5,7.6,12.9,15.2,19.5,22.7c1.3,1.5,1.5,2.3-0.5,3.3  c-4.3,2.1-8.5,4.6-12.7,6.8c-5.1,2.8-10.1,2.7-15.2-0.1c-19.9-10.9-39.8-21.8-59.8-32.6c-2.8-1.5-4.7-3.5-4.7-6.8  c0-3.2,2.1-5.1,4.6-6.5c19.8-10.7,39.7-21.6,59.5-32.4c5.5-3,10.7-3.1,16.1,0.1c2.4,1.4,4.8,2.8,7.3,3.9c1.6,0.8,3.5,1,4.5-1.1  c1.1-2.1,0.2-3.8-1.6-4.8c-3.3-1.8-6.6-3.7-10-5.3c-6-2.8-12.1-2.5-17.8,0.5C98.7,30.3,78.1,41.6,57.6,52.8  c-6.1,3.3-8.1,8.7-6.7,15.7c0.1,0.5,0.5,1.2-0.2,1.9c-1.2,0-2.6,0-3.9,0C34.6,70.4,29,76.2,29,88.8c0,15.3,0,30.6,0,45.9  c0,22.1,0,44.1,0,66.2c0,1.6,0.5,3.3-2.2,3.4c-6.8,0.2-6.7,0.4-6.7,7.2c0,1.1,0,2.1,0,3.1c0.3,12,9.2,21.4,20.9,21.4  c58.6,0,117.3,0,175.9,0c6,0,10.9-2.4,15-6.8C237.9,222.8,237.8,215,237.4,207z M160.6,98.2c3.8-2,7.6-4.1,11.5-6.3  c2.2,18-2.3,29.7-12.9,34.1c0-8.6,0-17.1,0-25.6C159.4,99.4,159.7,98.6,160.6,98.2z M156.2,147.2c1.4,2.5,2.7,4.7,3.8,6.8  c0.9,1.7,1.1,3.6-0.6,4.9c-2.2,1.6-4.5,1.6-6.6-0.1c-1.6-1.3-1.5-3.1-0.5-4.8C153.6,151.9,154.8,149.7,156.2,147.2z M85.1,91.7  c11.1,6.1,22,12,32.7,17.8c6.8,3.7,13.6,4.1,20.5,0.7c2-1,3.8-2,5.7-3.1c2.8-1.5,5.5-3,8.2-4.5c1.2,0.8,0.7,2,0.7,2.9  c0.1,4.7,0,9.3,0,14c0,9.9,0,10.1-9.3,11.9c-15.4,2.9-30.5,1.6-44.9-4.9c-7.9-3.6-12.6-10.3-13.5-19.1  C84.7,102.6,85.1,97.4,85.1,91.7z M35.1,87.8c0-7.2,3.4-10.1,10.3-10.9c10.4-1.2,19.2,2.5,27.4,8.5c-0.6,1-1.6,0.3-2.6,0.3  c-7.4,0.1-14.8,0.1-22.3,0c-3.1,0-4.4,1.4-4.3,4.4c0,0.6,0,1.3,0,1.9c0,32.3,0,64.6,0,96.9c0,5.7,0.6,6.4,6.3,6.4  c4.1,0,8.3,0,12.5,0c2.3,0,4.5-0.5,4.3-3.5c-0.1-2.7-2.1-3.2-4.3-3.2c-3,0-6.1-0.2-9.1,0.1c-2.6,0.2-3.4-0.5-3.4-3.3  c0.2-7.1,0.1-14.2,0.1-21.4c0-22.5,0.1-45.2-0.1-67.7c0-3.1,0.5-4.2,3.8-4.1c7.2,0.3,14.3,0.2,21.5,0c2.6-0.1,3.5,0.6,3.4,3.4  c-0.1,5.2-0.6,10.4,0.5,15.5c3,13.8,12.3,20.9,24.8,24.6c15.2,4.6,30.4,5.1,45.7,1c0.8-0.2,1.8-0.4,2.6-0.6c0.1,0,0.2,0.1,0.3,0.1  c0.6,2.1,0,3.9-1.1,5.8c-1.8,2.9-3.3,5.8-4.8,8.7c-3.9,7.5,0.3,15.1,8.6,15.2c6.1,0.1,9.3-1.7,11-6.1c1.2-3.2,0.8-6.1-0.7-8.9  c-1.6-3.1-3.4-6.1-5.1-9c-2.6-4.8-1.8-7.5,2.7-10.2c9.8-5.8,15.2-14.4,15.5-26.1c0.1-3.5,0.1-7,0-10.5c-0.1-2.2,0.7-2.9,2.8-2.9  c7.6,0.1,15.4,0.1,23,0c2.5-0.1,2.9,0.8,2.9,3.2c-0.1,30.1-0.1,60.2,0,90.3c0,3.2-1.3,3.1-3.5,3.1c-41.4,0-82.9,0-124.2,0  c-2.7,0-6.3-0.8-6.2,3.5c0.1,3.9,3.6,3.2,6.2,3.2c42.7,0,85.3,0,128,0c5.7,0,6.3-0.6,6.3-6.5c0-32.3,0-64.6,0-96.9  c0-5.8-0.4-6.3-6-6.3c-7.7,0-15.5,0-23.4,0c9.1-7.6,19.1-10.2,30.3-8.6c4.5,0.6,7.6,4.4,7.6,9.6c0.1,7.9,0,15.8,0,23.7  c0,30,0,59.9,0.1,89.9c0,3.1-0.7,3.8-3.7,3.8c-60.1-0.1-120.1-0.1-180.2,0c-3.1,0-3.6-1-3.6-3.9C35.1,162.8,35.1,125.3,35.1,87.8z   M147.8,210.7c-0.7,3.6-3.1,5.9-6.9,5.9c-8,0.1-16.1,0.2-24.1,0c-3.5-0.1-6-2.1-7.5-5.9C122.4,210.7,135.1,210.7,147.8,210.7z   M215.3,229.4c-22.4-0.2-44.8-0.1-67.2-0.1c-6.5,0-13.1,0-19.6,0c-28.7,0-57.4-0.1-86.1,0.1c-10.8,0.1-16.2-7.9-16.1-15.9  c0-2.2,0.7-2.9,2.8-2.9c23.7,0.1,47.3,0.1,71,0c1.8,0,2.5,0.5,3.2,2.3c2.2,5.9,6.3,9.7,12.6,10.1c8.7,0.5,17.3,0.5,26,0  c6.3-0.4,10.4-4.1,12.6-10.1c0.6-1.8,1.4-2.3,3.2-2.3c23.7,0,47.3,0.1,71,0c2.2,0,2.8,0.6,2.8,2.9  C231.3,221.4,226.1,229.5,215.3,229.4z"></path>	<path class="st0" d="M94.6,180c-10,0-20.1,0-30.1,0c-2.6,0-4.8-0.4-4.8-3.4c0-2.9,2.4-3.2,4.7-3.2c20.2,0,40.4,0,60.6,0  c2.2,0,4.6,0,4.5,3.2c0,3.4-2.4,3.3-4.8,3.3C114.7,180,104.7,180,94.6,180z"></path>	<path class="st0" d="M84.2,166.1c-6.8,0-13.5-0.1-20.3,0c-2.3,0-4.2-0.5-4.3-3.1c0-2.5,1.8-3.3,4.1-3.3c13.5,0.1,27.1,0.1,40.6,0  c2.3,0,4.1,0.5,4,3.3c0,2.5-1.8,3.1-3.9,3.1C97.8,166,91,166.1,84.2,166.1z"></path></g></svg>